HIERARCHY
ROOT Hips
{
	OFFSET -0.001795 -0.223333 0.028219
	CHANNELS 6 Xposition Yposition Zposition Zrotation Yrotation Xrotation 
	JOINT LeftUpLeg
	{
		OFFSET 0.069520 -0.091406 -0.006815
		CHANNELS 3 Zrotation Yrotation Xrotation
		JOINT LeftLeg
		{
			OFFSET 0.034277 -0.375199 -0.004496
			CHANNELS 3 Zrotation Yrotation Xrotation
			JOINT LeftFoot
			{
				OFFSET -0.013596 -0.397961 -0.043693
				CHANNELS 3 Zrotation Yrotation Xrotation
				JOINT LeftToe
				{
					OFFSET 0.026358 -0.055791 0.119288
					CHANNELS 3 Zrotation Yrotation Xrotation
					End Site
					{
						OFFSET 0.000000 0.000000 0.000000
					}
				}
			}
		}
	}
	JOINT RightUpLeg
	{
		OFFSET -0.067670 -0.090522 -0.004320
		CHANNELS 3 Zrotation Yrotation Xrotation
		JOINT RightLeg
		{
			OFFSET -0.038290 -0.382569 -0.008850
			CHANNELS 3 Zrotation Yrotation Xrotation
			JOINT RightFoot
			{
				OFFSET 0.015774 -0.398415 -0.042312
				CHANNELS 3 Zrotation Yrotation Xrotation
				JOINT RightToe
				{
					OFFSET -0.025372 -0.048144 0.123348
					CHANNELS 3 Zrotation Yrotation Xrotation
					End Site
					{
						OFFSET 0.000000 0.000000 0.000000
					}
				}
			}
		}
	}
	JOINT Spine
	{
		OFFSET -0.002533 0.108963 -0.026696
		CHANNELS 3 Zrotation Yrotation Xrotation
		JOINT Spine1
		{
			OFFSET 0.005487 0.135180 0.001092
			CHANNELS 3 Zrotation Yrotation Xrotation
			JOINT Spine2
			{
				OFFSET 0.001457 0.052922 0.025425
				CHANNELS 3 Zrotation Yrotation Xrotation
				JOINT Neck
				{
					OFFSET -0.002778 0.213870 -0.042857
					CHANNELS 3 Zrotation Yrotation Xrotation
					JOINT Head
					{
						OFFSET 0.005152 0.064970 0.051349
						CHANNELS 3 Zrotation Yrotation Xrotation
						End Site
						{
							OFFSET 0.000000 0.000000 0.000000
						}
					}
				}
				JOINT LeftShoulder
				{
					OFFSET 0.078845 0.121749 -0.034090
					CHANNELS 3 Zrotation Yrotation Xrotation
					JOINT LeftArm
					{
						OFFSET 0.090977 0.030469 -0.008868
						CHANNELS 3 Zrotation Yrotation Xrotation
						JOINT LeftForeArm
						{
							OFFSET 0.259612 -0.012772 -0.027456
							CHANNELS 3 Zrotation Yrotation Xrotation
							JOINT LeftHand
							{
								OFFSET 0.249234 0.008986 -0.001171
								CHANNELS 3 Zrotation Yrotation Xrotation
								End Site
								{
									OFFSET 0.000000 0.000000 0.000000
								}
							}
						}
					}
				}
				JOINT RightShoulder
				{
					OFFSET -0.081759 0.118833 -0.038615
					CHANNELS 3 Zrotation Yrotation Xrotation
					JOINT RightArm
					{
						OFFSET -0.096012 0.032551 -0.009143
						CHANNELS 3 Zrotation Yrotation Xrotation
						JOINT RightForeArm
						{
							OFFSET -0.253742 -0.013329 -0.021401
							CHANNELS 3 Zrotation Yrotation Xrotation
							JOINT RightHand
							{
								OFFSET -0.255298 0.007772 -0.005559
								CHANNELS 3 Zrotation Yrotation Xrotation
								End Site
								{
									OFFSET 0.000000 0.000000 0.000000
								}
							}
						}
					}
				}
			}
		}
	}
}
MOTION
Frames: 9
Frame Time: 0.050000
0.072470 0.941640 0.050926 -2.986127 10.232661 4.372074 4.582400 -0.976371 -13.535966 4.897795 -1.331558 9.465732 -10.526542 -22.228264 1.513006 0.000000 0.000000 0.000000 -4.028463 1.002699 -18.791934 1.314457 -0.049169 13.126796 29.430291 17.470130 50.283260 0.000000 0.000000 0.000000 0.410763 -0.480360 8.915501 -1.230804 0.433500 2.280250 2.702802 1.686526 4.672311 6.554482 -1.109075 -23.298001 0.000000 0.000000 0.000000 -29.774851 -12.357262 2.496309 -37.812096 -1.339075 -3.234299 -86.708910 -74.696643 73.557926 0.000000 0.000000 0.000000 28.957405 11.296373 7.408242 40.170264 3.168512 -3.673815 103.696844 77.040038 97.102672 0.000000 0.000000 0.000000 
0.085695 0.944686 0.050338 -3.299851 9.339862 4.154855 3.541295 -0.824632 -10.803754 5.801738 -1.078946 5.489223 -10.621865 -21.512229 2.260510 0.000000 0.000000 0.000000 -3.954525 0.975277 -16.849617 1.668419 -0.106366 11.769060 22.189588 14.920383 42.149866 0.000000 0.000000 0.000000 -0.217609 -0.253929 5.925787 -0.828164 0.284598 1.604018 2.477688 1.106133 4.612537 6.501286 -1.309994 -22.396900 0.000000 0.000000 0.000000 -28.124587 -10.620702 1.823852 -40.059397 -1.536070 -3.559321 -86.615033 -71.287570 70.194591 0.000000 0.000000 0.000000 28.441644 9.054571 5.439065 42.437517 0.936953 -4.420805 104.171578 70.873724 90.735025 0.000000 0.000000 0.000000 
0.097916 0.946796 0.049634 -3.706496 8.392394 4.527523 2.927764 -0.730354 -9.254596 6.237052 -0.836010 2.384684 -10.605141 -20.626946 3.006548 0.000000 0.000000 0.000000 -3.640463 0.999171 -15.658211 1.364313 -0.022363 9.731040 18.611229 12.971343 38.199660 0.000000 0.000000 0.000000 -0.524461 -0.101219 2.949131 -1.120652 0.440427 1.467687 2.885926 0.551968 4.603009 6.051600 -1.283506 -21.746172 0.000000 0.000000 0.000000 -27.046523 -8.915403 1.253210 -41.761641 -1.673748 -3.858524 -88.470567 -68.724990 69.693096 0.000000 0.000000 0.000000 27.130796 7.587668 3.936758 44.507877 -0.638354 -4.981128 106.312288 66.318702 87.597702 0.000000 0.000000 0.000000 
0.109144 0.948418 0.048518 -4.067381 7.488636 4.539862 2.657104 -0.621015 -7.735580 6.051117 -0.592335 -0.063410 -10.586158 -19.809730 3.735185 0.000000 0.000000 0.000000 -3.265945 0.989509 -14.152262 0.150976 0.181205 6.784424 19.082461 13.080007 38.858434 0.000000 0.000000 0.000000 -0.989911 0.002071 0.558061 -0.689367 0.245680 1.334133 2.691283 0.283867 4.407345 6.406824 -1.635838 -21.101192 0.000000 0.000000 0.000000 -25.647303 -7.348938 0.624232 -43.563786 -1.561980 -4.180111 -90.049451 -66.424427 68.997409 0.000000 0.000000 0.000000 26.154064 6.333135 2.819976 46.027361 -1.837466 -5.446061 108.452300 63.163466 86.019859 0.000000 0.000000 0.000000 
0.119526 0.948505 0.046926 -4.321553 6.627231 4.718958 2.536718 -0.550731 -6.775772 5.481708 -0.385021 -1.917679 -10.417030 -19.086075 4.101625 0.000000 0.000000 0.000000 -3.402663 0.959837 -13.508681 -0.309797 0.214405 4.973132 19.534678 13.176298 39.442138 0.000000 0.000000 0.000000 -0.937111 0.039197 -0.634989 -1.181173 0.484618 1.459181 3.334997 -0.293910 4.429696 5.732385 -1.434571 -20.827506 0.000000 0.000000 0.000000 -25.253282 -6.271512 0.427517 -44.417688 -1.782813 -4.335807 -92.471445 -65.744770 71.071788 0.000000 0.000000 0.000000 25.193798 6.243571 2.319816 46.795328 -1.615331 -5.323815 111.048722 62.113423 87.071450 0.000000 0.000000 0.000000 
0.128978 0.948392 0.044948 -4.501362 5.806275 4.690578 2.394976 -0.489696 -5.941906 4.895469 -0.241268 -3.223621 -10.215392 -18.427590 4.351772 0.000000 0.000000 0.000000 -3.374046 0.966625 -13.320390 -1.086366 0.315279 4.324599 19.956475 13.265921 39.949276 0.000000 0.000000 0.000000 -1.204454 0.066534 -1.427026 -0.849776 0.342381 1.171132 3.140581 -0.185555 4.588454 5.682615 -1.510266 -20.269783 0.000000 0.000000 0.000000 -24.536710 -5.858954 0.322921 -45.043973 -1.547617 -4.533471 -94.333932 -65.665143 72.881908 0.000000 0.000000 0.000000 25.336377 6.141902 2.167653 46.119631 -0.564043 -4.860170 116.679771 62.676218 94.002634 0.000000 0.000000 0.000000 
0.137387 0.948332 0.042684 -4.659505 5.246995 4.431115 2.068011 -0.456370 -5.463778 4.724834 -0.205592 -3.589842 -10.019074 -18.020937 4.353271 0.000000 0.000000 0.000000 -3.717988 0.922726 -12.973675 -1.124828 0.302391 3.852404 20.268783 13.221881 40.503181 0.000000 0.000000 0.000000 -1.145164 0.077553 -1.837869 -1.157537 0.503822 0.942716 3.602523 -0.568694 4.970652 5.023767 -1.240196 -20.252183 0.000000 0.000000 0.000000 -24.505045 -5.136849 0.169304 -45.270661 -1.974774 -4.522656 -96.518928 -65.496070 75.209587 0.000000 0.000000 0.000000 24.359300 6.246083 1.978746 45.496103 1.481043 -4.027499 125.138825 64.287450 105.688011 0.000000 0.000000 0.000000 
0.144393 0.948692 0.040465 -4.741122 4.567504 4.300834 1.561453 -0.433438 -5.102863 4.890307 -0.193106 -3.973309 -9.803853 -17.466537 4.482038 0.000000 0.000000 0.000000 -3.970124 0.894405 -12.693667 -1.300583 0.299539 3.204182 20.631154 13.174656 41.132783 0.000000 0.000000 0.000000 -1.325786 0.090417 -2.261454 -1.021064 0.454356 0.603020 3.661659 -0.662014 5.186871 4.939202 -1.269558 -20.061140 0.000000 0.000000 0.000000 -24.438258 -4.451196 -0.083423 -45.290201 -2.278384 -4.478119 -97.445757 -65.349548 76.179314 0.000000 0.000000 0.000000 23.843169 6.706813 2.121683 44.099461 4.288192 -2.927186 138.421299 67.478456 125.994152 0.000000 0.000000 0.000000 
0.149808 0.948748 0.038480 -4.759458 4.344620 4.344678 1.276825 -0.433871 -5.066864 4.759250 -0.165102 -4.248957 -9.789426 -17.266485 4.680538 0.000000 0.000000 0.000000 -3.951527 0.910465 -12.860293 -1.919003 0.384388 3.169912 20.728401 13.096239 41.401464 0.000000 0.000000 0.000000 -1.477544 0.100308 -2.610953 -0.909689 0.408360 0.414198 3.915627 -0.925092 5.182718 4.691803 -1.190063 -19.972593 0.000000 0.000000 0.000000 -24.194221 -3.910711 -0.244327 -45.443586 -2.497964 -4.459097 -97.506041 -65.810522 76.934701 0.000000 0.000000 0.000000 22.997077 7.188135 2.275171 42.591210 8.400565 -1.443746 156.882366 71.915068 154.041017 0.000000 0.000000 0.000000 
